<svg width="1440" height="504" viewBox="0 0 1440 504" fill="none" xmlns="http://www.w3.org/2000/svg">
<rect width="1440" height="504" fill="#00C997"/>
<mask id="mask0" mask-type="alpha" maskUnits="userSpaceOnUse" x="0" y="0" width="1440" height="504">
<rect width="1440" height="504" fill="white"/>
</mask>
<g mask="url(#mask0)">
<path fill-rule="evenodd" clip-rule="evenodd" d="M-43 387.172C-43 387.172 46.3281 306.828 123.664 387.172C201 467.516 310 434.438 357 450.977C404 467.516 383 504.977 383 504.977H-43V387.172Z" fill="#04B88B"/>
<path fill-rule="evenodd" clip-rule="evenodd" d="M1395.15 218.494C1436.4 127.494 1577.53 151.767 1598.66 218.494C1619.78 285.22 1493.28 245.095 1471.8 309.994C1450.32 374.892 1353.9 309.494 1395.15 218.494Z" fill="#04B88B"/>
<path fill-rule="evenodd" clip-rule="evenodd" d="M1060.73 480.606L1053.8 490.431L1058.82 491.498L1071.92 482.986" fill="#079572"/>
<path fill-rule="evenodd" clip-rule="evenodd" d="M1298.1 479.049C1298.1 479.049 1332.7 498.845 1334.25 517.801C1335.81 536.758 1327.68 535.707 1323.5 536.095C1319.32 536.483 1137.79 501.288 1069.77 483.575C1001.75 465.863 1030.85 445.891 1065.27 435.518" fill="#02AC7D"/>
<path fill-rule="evenodd" clip-rule="evenodd" d="M1084.49 380.44C1106.13 380.44 1298.44 422.095 1312.02 439.279C1325.61 456.462 1309.96 483.455 1294.35 481.87C1278.74 480.285 1104.54 452.526 1062.84 435.497C1053.41 416.67 1062.84 380.44 1084.49 380.44Z" fill="#00BC88"/>
<path d="M1275.17 456.847C1273.68 456.53 1272.72 455.063 1273.04 453.57C1273.36 452.078 1274.83 451.125 1276.32 451.442C1277.81 451.76 1278.76 453.227 1278.45 454.719C1278.13 456.212 1276.66 457.164 1275.17 456.847Z" fill="#009069"/>
<path d="M1238.03 448.754C1236.54 448.437 1235.58 446.97 1235.9 445.478C1236.22 443.986 1237.69 443.034 1239.18 443.351C1240.67 443.668 1241.62 445.135 1241.3 446.627C1240.99 448.119 1239.52 449.071 1238.03 448.754Z" fill="#009069"/>
<path d="M1202.03 441.496C1200.54 441.179 1199.59 439.712 1199.9 438.22C1200.22 436.728 1201.69 435.775 1203.18 436.092C1204.67 436.41 1205.62 437.876 1205.31 439.368C1204.99 440.86 1203.52 441.813 1202.03 441.496Z" fill="#009069"/>
<path d="M1155.14 430.904C1153.65 430.587 1152.7 429.12 1153.02 427.628C1153.33 426.136 1154.8 425.184 1156.29 425.501C1157.78 425.818 1158.74 427.285 1158.42 428.777C1158.1 430.269 1156.64 431.221 1155.14 430.904Z" fill="#009069"/>
<path d="M1101.14 418.904C1099.65 418.587 1098.7 417.12 1099.02 415.628C1099.33 414.136 1100.8 413.184 1102.29 413.501C1103.78 413.818 1104.74 415.285 1104.42 416.777C1104.1 418.269 1102.64 419.221 1101.14 418.904Z" fill="#009069"/>
<path fill-rule="evenodd" clip-rule="evenodd" d="M268.265 95.8677L361.588 414.631L572.985 309.212L333.259 59.8407L268.265 95.8677Z" fill="url(#paint0_linear)"/>
<path d="M256.838 0.115921L287.906 55.5297" stroke="#009870" stroke-width="1.8"/>
<path fill-rule="evenodd" clip-rule="evenodd" d="M270.15 99.2683C270.15 99.2683 322.388 89.7365 332.32 58.1468C282.154 61.9387 270.15 99.2683 270.15 99.2683Z" fill="#24DCA8"/>
<path fill-rule="evenodd" clip-rule="evenodd" d="M338.632 57.0823C287.169 33.2999 267.573 81.0698 269.944 98.9298C285.75 67.5226 368.973 77.6728 338.632 57.0823Z" fill="#06BA8D"/>
<path fill-rule="evenodd" clip-rule="evenodd" d="M286.433 60.4048C286.433 60.4048 311.921 79.1651 333.388 73.4999C354.856 67.8346 342.88 59.4543 342.88 59.4543C342.88 59.4543 309.097 38.3825 286.433 60.4048Z" fill="#05926F"/>
<path fill-rule="evenodd" clip-rule="evenodd" d="M1174.26 122.553C1174.26 122.553 1180.76 71.3794 1194.66 83.4822C1208.55 95.5849 1218.17 72.0593 1222.01 47.7335C1225.84 23.4077 1232.74 3.21993 1238.79 17.1627C1244.93 31.2889 1257.27 112.422 1257.27 112.422L1175.96 126.423" fill="#00BC88"/>
<path fill-rule="evenodd" clip-rule="evenodd" d="M1156.49 57.8118C1156.49 57.8118 1163.33 42.1638 1171.42 47.1047C1179.5 52.0455 1185.12 41.9591 1189.06 28.5302C1193 15.1014 1189.36 16.1618 1189.36 16.1618L1149.24 21.906L1156.49 57.8118Z" fill="#00BC88"/>
<rect x="1149.24" y="21.906" width="92.2555" height="109.282" rx="2.80632" transform="rotate(-10 1149.24 21.906)" stroke="#149B78" stroke-width="3.3"/>
<path d="M1196.39 14.2482L1215.19 120.844" stroke="#149B78" stroke-width="3.3"/>
<path d="M1158.78 73.4362L1247.41 57.8078" stroke="#149B78" stroke-width="3.3"/>
<path fill-rule="evenodd" clip-rule="evenodd" d="M67.9802 306.823C67.6834 307.93 66.9666 308.865 65.9742 309.438L65.9638 309.444C63.9078 310.631 61.2624 309.939 60.065 307.889C59.492 306.897 59.3341 305.743 59.6314 304.636C59.9283 303.528 60.645 302.594 61.6479 302.015C62.681 301.418 63.8564 301.302 64.9263 301.579C66.0022 301.867 66.9561 302.547 67.5521 303.579C68.1296 304.557 68.2767 305.716 67.9802 306.823ZM122.243 267.854C121.896 267.458 121.407 267.218 120.877 267.204L114.415 267.056C114.08 267.047 113.745 267.133 113.449 267.303L80.653 286.238C74.4208 281.98 66.3391 281.646 59.7114 285.473C55.1667 288.107 51.9099 292.344 50.5594 297.409C49.2121 302.461 49.917 307.726 52.5373 312.247C57.9576 321.579 69.9956 324.777 79.3738 319.363C86.0015 315.536 89.7376 308.379 89.137 300.859L94.8857 297.54C95.3663 297.263 95.6932 296.797 95.7847 296.253L96.7115 290.825L101.02 288.316L106.476 286.744C106.863 286.637 107.196 286.402 107.443 286.09L109.906 282.844L113.322 282.631C113.969 282.587 114.547 282.222 114.848 281.654L116.868 277.822L120.015 277.605C120.889 277.548 121.602 276.88 121.723 276.022L122.665 269.306C122.737 268.785 122.581 268.256 122.243 267.854Z" fill="#12AD81"/>
</g>
<defs>
<linearGradient id="paint0_linear" x1="204.49" y1="131.219" x2="366.575" y2="423.627" gradientUnits="userSpaceOnUse">
<stop stop-color="#00C997"/>
<stop offset="1" stop-color="white" stop-opacity="0.01"/>
</linearGradient>
</defs>
</svg>
