<svg xmlns="http://www.w3.org/2000/svg" xmlns:xlink="http://www.w3.org/1999/xlink" xmlns:a="http://ns.adobe.com/AdobeSVGViewerExtensions/3.0/" x="0px" y="0px" width="2873px" height="2800px" viewBox="9.102 0 2873 2800" xml:space="preserve">
<defs>
</defs>
<g>
	<defs>
		<rect id="SVGID_1_" x="9.102" width="2872.87" height="2800"></rect>
	</defs>
	<clipPath id="SVGID_59_">
		<use xlink:href="#SVGID_1_"></use>
	</clipPath>
	<g clip-path="url(#SVGID_59_)">
		<defs>
			<rect id="SVGID_58_" x="9.102" width="2872.866" height="2800"></rect>
		</defs>
		<clipPath id="SVGID_60_">
			<use xlink:href="#SVGID_58_"></use>
		</clipPath>
		<path clip-path="url(#SVGID_60_)" fill="#6ED69A" d="M1821.052,1574.892c0,0,51.615-323.707-86.214-430.841    c-137.83-107.134-414.885-199.911-362.52-667.665c30.656-273.843,40.033-394.115,42.539-446.773    c0.978-20.541,21.233-34.491,40.75-28.011c138.056,45.832,583.408,217.875,637.439,545.02    C2157.101,934.456,1821.052,1574.892,1821.052,1574.892"></path>
		<path clip-path="url(#SVGID_60_)" fill="#FFFFFF" d="M1546.509,147.069c74.983,91.237,136.828,191.976,192.091,296.067    c13.302,26.292,26.895,52.47,38.981,79.368l9.318,20.056l4.659,10.03l4.366,10.16l17.381,40.685l4.297,10.194l3.981,10.321    l7.962,20.645l7.962,20.646l3.98,10.324l3.653,10.445c9.5,27.964,19.836,55.512,27.962,84.184    c2.26,7.078,4.018,14.292,5.948,21.459c1.873,7.183,3.859,14.338,5.638,21.542l4.973,21.699l2.474,10.852l2.136,10.92l4.267,21.84    l3.616,21.951c1.245,7.311,2.385,14.638,3.262,22l2.867,22.051c6.672,58.902,9.486,118.219,7.582,177.365    c-1.584,59.145-7.086,118.115-16.078,176.501c-4.645,29.174-10.19,58.194-16.661,87.011    c-6.458,28.881-13.802,57.318-23.097,85.782c-1.357,4.162-5.834,6.436-9.998,5.076c-4.068-1.329-6.332-5.638-5.161-9.719    l0.064-0.221c3.945-13.689,7.436-27.966,10.672-42.098c3.27-14.174,6.363-28.399,9.126-42.695    c5.597-28.574,10.278-57.332,14.064-86.195c7.718-57.696,12.477-115.803,13.101-173.937c0.774-58.123-2.12-116.239-8.956-173.842    c-7.38-57.503-17.965-114.67-34.328-170.229c-7.907-27.767-17.821-55.302-26.977-82.936l-3.518-10.345l-3.846-10.229    l-7.691-20.458l-7.69-20.462l-3.845-10.232l-4.161-10.108c-21.465-54.222-45.728-107.289-71.113-159.838    c-25.929-52.282-53.769-103.659-83.834-153.738c-29.731-50.23-61.663-99.437-96.387-146.186l-0.126-0.171    c-1.481-1.993-1.065-4.809,0.929-6.29C1542.283,144.881,1544.995,145.235,1546.509,147.069"></path>
		<path clip-path="url(#SVGID_60_)" fill="#61CE8D" d="M1739.721,2254.617c21.866,16.851-167.335-354.576-144.829-872.9    c10.605-244.248,70.424-540.804-41.121-682.468c-92.835-117.903-486.772-135.528-616.314-138.125    c-16.186-0.324-25.452,18.322-15.378,30.997c49.664,62.488,153.657,207.206,162.715,333.577    c11.942,166.566,141.396,297.302,270.027,351.724c128.632,54.422,197.902,95.932,219.614,323.765    C1596.145,1829.021,1677.588,2206.735,1739.721,2254.617"></path>
		<path clip-path="url(#SVGID_60_)" fill="#FCFCFC" d="M1099.374,664.285c79.59,20.363,154.879,56.775,220.715,106.566    c32.975,24.808,62.861,53.924,88.629,86.418c25.486,32.683,46.9,68.86,61.756,107.724l5.5,14.592    c1.802,4.875,3.146,9.904,4.737,14.851c1.467,4.963,3.127,9.965,4.432,14.897l3.938,14.802    c5.295,19.723,10.493,39.471,15.489,59.274c10.06,39.585,19.489,79.333,28.313,119.214    c17.677,79.764,32.953,160.046,43.341,241.212c0.231,1.808-1.046,3.46-2.854,3.691c-1.749,0.224-3.353-0.965-3.664-2.679    l-0.018-0.102c-7.183-39.997-15.187-79.984-23.926-119.743c-8.574-39.807-17.638-79.507-27.147-119.099l-14.459-59.337    l-15.138-59.169c-5.037-19.725-10.277-39.398-15.612-59.047l-3.968-14.744c-1.317-4.92-2.901-9.593-4.334-14.401    c-1.512-4.762-2.769-9.611-4.479-14.306l-5.222-14.053c-14.019-37.49-34.669-72.214-58.76-104.184    c-12.398-15.731-25.368-31.099-39.755-45.139l-5.294-5.361l-5.5-5.154c-3.684-3.419-7.281-6.938-11.036-10.283    c-7.607-6.584-15.136-13.271-23.1-19.45c-31.39-25.302-65.854-46.769-101.667-65.575c-35.827-18.742-73.493-34.586-112.176-46.268    l-0.164-0.049c-1.399-0.423-2.191-1.9-1.768-3.3C1096.594,664.722,1098.009,663.938,1099.374,664.285"></path>
		<path clip-path="url(#SVGID_60_)" fill="#07A9DB" d="M2878.091,2602.006H1762.204V992.026c0-22.326,18.099-40.424,40.425-40.424    h1035.037c22.326,0,40.425,18.098,40.425,40.424V2602.006z"></path>
		<path clip-path="url(#SVGID_60_)" fill="#0B69A2" d="M2190.039,2602.006h-972.543V1504.108c0-22.326,18.099-40.425,40.426-40.425    h891.692c22.325,0,40.425,18.098,40.425,40.425V2602.006z"></path>
		<path clip-path="url(#SVGID_60_)" fill="#07A9DB" d="M1506.397,2600.375H668.378v-763.577c0-22.326,18.099-40.425,40.424-40.425    h757.17c22.324,0,40.425,18.099,40.425,40.425V2600.375z"></path>
	</g>
	<g clip-path="url(#SVGID_59_)">
		<defs>
			<path id="SVGID_57_" d="M2284.016,773.805c-33.622,41.003-282.423,476.715-282.885,476.893l-12.602,23.247     c51.116-11.815,96.404-37.36,135.652-77.142l-23.907-25.025c-5.487-5.746-4.987-14.913,1.088-20.033     c59.882-50.438,234.482-188.667,221.033-281.68l135.914,79.155l-81.583-176.493l-69.444-8.276     c-1.038-0.124-2.077-0.185-3.107-0.185C2296.414,764.267,2289.009,767.718,2284.016,773.805"></path>
		</defs>
		<clipPath id="SVGID_61_">
			<use xlink:href="#SVGID_57_"></use>
		</clipPath>
		
			<linearGradient id="SVGID_62_" gradientUnits="userSpaceOnUse" x1="9.1016" y1="2799.9473" x2="10.1016" y2="2799.9473" gradientTransform="matrix(392.2526 223.892 -223.892 392.2526 625360.1875 -1099407.25)">
			<stop offset="0" style="stop-color:#FEBBBA"></stop>
			<stop offset="1" style="stop-color:#FF928E"></stop>
		</linearGradient>
		<polygon clip-path="url(#SVGID_61_)" fill="url(#SVGID_62_)" points="1769.102,1148.698 2342.867,1476.196 2677.738,889.513     2103.972,562.015   "></polygon>
	</g>
	<g clip-path="url(#SVGID_59_)">
		<defs>
			<path id="SVGID_56_" d="M2007.563,1260.251c-4.562,2.576-9.677-2.315-7.356-7.011l1.837-3.711     c-20.452,25.971-26.8,43.713-28.763,52.596c-0.706,3.194,2.277,6.03,5.411,5.096c38.243-11.381,121.114-69.491,146.237-87.491     c5.654-4.05,8.318-11.414,5.846-17.916c-5.165-13.588-20.423-18.517-20.423-18.517     C2085.241,1214.209,2033.142,1245.812,2007.563,1260.251"></path>
		</defs>
		<clipPath id="SVGID_63_">
			<use xlink:href="#SVGID_56_"></use>
		</clipPath>
		
			<linearGradient id="SVGID_64_" gradientUnits="userSpaceOnUse" x1="9.1016" y1="2800.0088" x2="10.1016" y2="2800.0088" gradientTransform="matrix(176.6833 427.6212 427.6212 -176.6833 -1196954.75 491930.6563)">
			<stop offset="0" style="stop-color:#09005D"></stop>
			<stop offset="1" style="stop-color:#1A0F91"></stop>
		</linearGradient>
		<polygon clip-path="url(#SVGID_63_)" fill="url(#SVGID_64_)" points="2109.818,1126.591 2177.314,1289.948 1996.005,1364.861     1928.51,1201.504   "></polygon>
	</g>
	<g clip-path="url(#SVGID_59_)">
		<defs>
			<path id="SVGID_55_" d="M2299.453,819.493c-8.889,0.759-16.75,5.969-20.894,13.867     c-24.626,46.961-108.13,225.423-142.356,433.804c-0.416,0.267-37.746,90.204-38.162,90.471l-7.635,25.316     c47.666-21.914,86.848-56.095,117.232-102.998l-28.477-19.668c-6.537-4.518-7.904-13.597-2.988-19.839     c48.435-61.513,191.447-232.216,159.453-320.583l149.121,50.011l-115.613-156.331L2299.453,819.493z"></path>
		</defs>
		<clipPath id="SVGID_65_">
			<use xlink:href="#SVGID_55_"></use>
		</clipPath>
		
			<linearGradient id="SVGID_66_" gradientUnits="userSpaceOnUse" x1="9.1016" y1="2800.0195" x2="10.1016" y2="2800.0195" gradientTransform="matrix(-1342.097 -840.1734 840.1734 -1342.097 -2338291 3766460.25)">
			<stop offset="0" style="stop-color:#FEBBBA"></stop>
			<stop offset="1" style="stop-color:#FF928E"></stop>
		</linearGradient>
		<polygon clip-path="url(#SVGID_65_)" fill="url(#SVGID_66_)" points="2740.843,973.863 2201.436,636.186 1834.311,1222.631     2373.719,1560.309   "></polygon>
	</g>
	<g clip-path="url(#SVGID_59_)">
		<defs>
			<path id="SVGID_54_" d="M2106.274,1365.691c-3.946,3.445-9.944-0.309-8.622-5.379l1.045-4.006     c-14.771,29.573-17.397,48.231-17.521,57.329c-0.044,3.271,3.449,5.444,6.331,3.896     c35.147-18.886,104.544-92.565,125.505-115.276c4.717-5.111,5.835-12.863,2.1-18.729c-7.81-12.262-23.75-14.001-23.75-14.001     C2173.026,1304.88,2128.399,1346.373,2106.274,1365.691"></path>
		</defs>
		<clipPath id="SVGID_67_">
			<use xlink:href="#SVGID_54_"></use>
		</clipPath>
		
			<linearGradient id="SVGID_68_" gradientUnits="userSpaceOnUse" x1="9.1016" y1="2800.0088" x2="10.1016" y2="2800.0088" gradientTransform="matrix(259.5667 382.9823 382.9823 -259.5667 -1072651.5 724522)">
			<stop offset="0" style="stop-color:#09005D"></stop>
			<stop offset="1" style="stop-color:#1A0F91"></stop>
		</linearGradient>
		<polygon clip-path="url(#SVGID_67_)" fill="url(#SVGID_68_)" points="2175.499,1205.567 2288.303,1372.005 2124.479,1483.037     2011.676,1316.599   "></polygon>
	</g>
	<g clip-path="url(#SVGID_59_)">
		<defs>
			<path id="SVGID_53_" d="M2422.255,783.746c-28.554,11.081-170.435-0.183-170.435-0.183     c112.174,46.562,121.73,68.348,135.162,153.985c0,0,96.787,58.844,293.127,42.613c65.979-5.455,88.583-20.245,83.409-63.013     c-5.172-42.77-68.208-136.528-68.208-136.528s-84.944-2.764-160.55-2.764C2482.108,777.856,2433.977,779.197,2422.255,783.746"></path>
		</defs>
		<clipPath id="SVGID_69_">
			<use xlink:href="#SVGID_53_"></use>
		</clipPath>
		
			<linearGradient id="SVGID_70_" gradientUnits="userSpaceOnUse" x1="9.1016" y1="2800.0869" x2="10.1016" y2="2800.0869" gradientTransform="matrix(322.6135 353.5484 -353.5484 322.6135 989308.125 -905931)">
			<stop offset="0" style="stop-color:#09005D"></stop>
			<stop offset="1" style="stop-color:#1A0F91"></stop>
		</linearGradient>
		<polygon clip-path="url(#SVGID_69_)" fill="url(#SVGID_70_)" points="2143.009,877.146 2486.658,1253.749 2877.504,897.102     2533.854,520.5   "></polygon>
	</g>
	<g clip-path="url(#SVGID_59_)">
		<defs>
			<path id="SVGID_52_" d="M2443.939,255.32l18.201,59.092l81.255,192.007c0,0,102.339,90.571,154.036,35.163     c23.068-24.725,21.39-45.27,12.455-60.442c-9.314-15.816-3.816-36.086,11.587-46.071c20.974-13.592,37.173-37.436,16.19-78.175     c-27.486-53.375-83.159-52.847-117.219-46.565c-13.676,2.524-26.951-4.564-33.098-17.038     c-11.902-24.162-44.373-14.638-52.826-26.182c-17.749-24.235-35.093-31.743-49.777-31.742     C2460.808,235.368,2443.939,255.32,2443.939,255.32"></path>
		</defs>
		<clipPath id="SVGID_71_">
			<use xlink:href="#SVGID_52_"></use>
		</clipPath>
		
			<linearGradient id="SVGID_72_" gradientUnits="userSpaceOnUse" x1="9.1016" y1="2799.9189" x2="10.1016" y2="2799.9189" gradientTransform="matrix(170.5465 196.8862 196.8862 -170.5465 -550456.75 475863.2813)">
			<stop offset="0" style="stop-color:#09005D"></stop>
			<stop offset="1" style="stop-color:#1A0F91"></stop>
		</linearGradient>
		<polygon clip-path="url(#SVGID_71_)" fill="url(#SVGID_72_)" points="2623.737,79.621 2937.61,441.969 2578.848,752.734     2264.976,390.387   "></polygon>
	</g>
	<g clip-path="url(#SVGID_59_)">
		<defs>
			<path id="SVGID_51_" d="M2447.147,441.503c-2.674,8.96-31.992,66.525-48.487,122.104c-9.035,30.435-2.899,63.379,16.631,88.404     c36.136,46.297,109.541,116.196,109.541,116.196l153.631-15.878c-2.547-39.1-74.848-134.614-74.848-134.614     c41.784,45.108,84.074,116.056,84.074,116.056l71.468-22.25c-63.637-178.061-225.603-283.179-225.603-283.179     s-0.483-0.004-1.381-0.004C2521.377,428.338,2450.932,428.825,2447.147,441.503"></path>
		</defs>
		<clipPath id="SVGID_73_">
			<use xlink:href="#SVGID_51_"></use>
		</clipPath>
		
			<linearGradient id="SVGID_74_" gradientUnits="userSpaceOnUse" x1="9.1016" y1="2799.9785" x2="10.1016" y2="2799.9785" gradientTransform="matrix(924.6904 891.9592 -891.9592 924.6904 2491459.25 -2596793.25)">
			<stop offset="0" style="stop-color:#4F52FF"></stop>
			<stop offset="1" style="stop-color:#4042E2"></stop>
		</linearGradient>
		<polygon clip-path="url(#SVGID_73_)" fill="url(#SVGID_74_)" points="2219.801,604.394 2581.047,952.853 2928.981,592.151     2567.735,243.692   "></polygon>
	</g>
	<g clip-path="url(#SVGID_59_)">
		<defs>
			<path id="SVGID_50_" d="M2663.104,741.425l-42.505,11.506c-42.505,11.507-116.771,0-116.771,0l-63.701-17.153l-55.157,60.012     l64.248,4.719c0,0,278.737,3.784,291.388-1.75c6.209-2.716,15.95-9.206,24.26-15.111c9.359-6.651,13.208-18.668,9.379-29.493     l-15.087-42.634L2663.104,741.425z"></path>
		</defs>
		<clipPath id="SVGID_75_">
			<use xlink:href="#SVGID_50_"></use>
		</clipPath>
		
			<linearGradient id="SVGID_76_" gradientUnits="userSpaceOnUse" x1="9.1016" y1="2799.9961" x2="10.1016" y2="2799.9961" gradientTransform="matrix(390.7426 0 0 -390.7426 -927.8234 1094835.875)">
			<stop offset="0" style="stop-color:#FEBBBA"></stop>
			<stop offset="1" style="stop-color:#FF928E"></stop>
		</linearGradient>
		<rect x="2384.97" y="711.521" clip-path="url(#SVGID_75_)" fill="url(#SVGID_76_)" width="393.104" height="92.771"></rect>
	</g>
	<g clip-path="url(#SVGID_59_)">
		<defs>
			<path id="SVGID_49_" d="M2451.533,336.153c-6.048,3.218-24.423,25.802-23.002,32.504l33.094,68.735     c0.337,1.592,0.846,3.172,1.735,4.536c8.736,13.408,65.293,12.776,68.945-9.679l-55.319-102.87     c-3.199-1.032-5.666-1.952-7.531-2.766L2451.533,336.153z M2469.455,326.613l4.065-2.165c3.532-1.879-0.556-3.037-4.319-3.037     C2464.891,321.411,2461.005,322.928,2469.455,326.613"></path>
		</defs>
		<clipPath id="SVGID_77_">
			<use xlink:href="#SVGID_49_"></use>
		</clipPath>
		
			<linearGradient id="SVGID_78_" gradientUnits="userSpaceOnUse" x1="9.1016" y1="2799.9844" x2="10.1016" y2="2799.9844" gradientTransform="matrix(-177.3699 -230.3504 -230.3504 177.3699 649202 -493978.4063)">
			<stop offset="0" style="stop-color:#FEBBBA"></stop>
			<stop offset="1" style="stop-color:#FF928E"></stop>
		</linearGradient>
		<polygon clip-path="url(#SVGID_77_)" fill="url(#SVGID_78_)" points="2466.266,506.187 2362.372,371.26 2493.15,270.561     2597.044,405.487   "></polygon>
	</g>
	<g clip-path="url(#SVGID_59_)">
		<defs>
			<path id="SVGID_48_" d="M2365.028,305.238c0,0-6.245,34.753,21.072,78.941c27.317,44.19,54.517,42.194,68.338,26.436     c13.82-15.76,30.374-42.005,22.842-86.078c-4.556-26.662-41.229-44.347-71.579-44.349     C2385.879,280.186,2368.757,287.728,2365.028,305.238"></path>
		</defs>
		<clipPath id="SVGID_79_">
			<use xlink:href="#SVGID_48_"></use>
		</clipPath>
		
			<linearGradient id="SVGID_80_" gradientUnits="userSpaceOnUse" x1="9.1016" y1="2800.0254" x2="10.1016" y2="2800.0254" gradientTransform="matrix(-170.0249 -325.3885 -325.3885 170.0249 915117.75 -472657.25)">
			<stop offset="0" style="stop-color:#FEBBBA"></stop>
			<stop offset="1" style="stop-color:#FF928E"></stop>
		</linearGradient>
		<polygon clip-path="url(#SVGID_79_)" fill="url(#SVGID_80_)" points="2385.813,480.1 2297.96,311.968 2457.782,228.457     2545.636,396.588   "></polygon>
	</g>
	<g clip-path="url(#SVGID_59_)">
		<defs>
			<path id="SVGID_47_" d="M2327.223,296.603c-4.789,40.702,39.371,42.767,39.371,42.767l-0.573-17.496     c33.959-50.646,78.191,7.451,78.191,7.451l3.731-2.121c0,0-4.723-18.939,8.346-17.304c13.07,1.634,23.894,25.579,23.894,25.579     s28.335,5.67,22.69-29.031c-5.644-34.702-34.85-50.539-84.827-64.445c-8.878-2.47-17.313-3.624-25.214-3.624     C2356.246,238.381,2331.16,263.131,2327.223,296.603"></path>
		</defs>
		<clipPath id="SVGID_81_">
			<use xlink:href="#SVGID_47_"></use>
		</clipPath>
		
			<linearGradient id="SVGID_82_" gradientUnits="userSpaceOnUse" x1="9.1016" y1="2800.0225" x2="10.1016" y2="2800.0225" gradientTransform="matrix(238.086 47.7698 47.7698 -238.086 -133652 666472.25)">
			<stop offset="0" style="stop-color:#09005D"></stop>
			<stop offset="1" style="stop-color:#1A0F91"></stop>
		</linearGradient>
		<polygon clip-path="url(#SVGID_81_)" fill="url(#SVGID_82_)" points="2329.635,202.488 2528.34,242.356 2501.316,377.04     2302.611,337.172   "></polygon>
	</g>
	<g clip-path="url(#SVGID_59_)">
		<defs>
			<path id="SVGID_46_" d="M2452.306,291.873c-20.857,6.171,2.056,35.904,2.056,35.904l16.663,6.362     c1.251-12.094,2.013-42.986-14.16-42.983C2455.475,291.156,2453.957,291.384,2452.306,291.873"></path>
		</defs>
		<clipPath id="SVGID_83_">
			<use xlink:href="#SVGID_46_"></use>
		</clipPath>
		
			<linearGradient id="SVGID_84_" gradientUnits="userSpaceOnUse" x1="9.1016" y1="2800.0186" x2="10.1016" y2="2800.0186" gradientTransform="matrix(-170.0231 -325.385 -325.385 170.0231 915147.4375 -472672.6563)">
			<stop offset="0" style="stop-color:#FEBBBA"></stop>
			<stop offset="1" style="stop-color:#FF928E"></stop>
		</linearGradient>
		<polygon clip-path="url(#SVGID_83_)" fill="url(#SVGID_84_)" points="2440.368,351.211 2413.804,300.373 2464.117,274.083     2490.682,324.92   "></polygon>
	</g>
	<g clip-path="url(#SVGID_59_)">
		<defs>
			<path id="SVGID_45_" d="M2301.92,807.911c-0.006,6.272,5.072,11.363,11.344,11.367l253.703,0.277     c0.193,0.001,0.389-0.004,0.583-0.013c6-0.297,10.778-5.254,10.786-11.331c0.006-6.271-5.073-11.362-11.345-11.366     l-253.702-0.277c-0.067-0.001-0.134-0.001-0.2-0.001C2306.925,796.567,2301.926,801.705,2301.92,807.911"></path>
		</defs>
		<clipPath id="SVGID_85_">
			<use xlink:href="#SVGID_45_"></use>
		</clipPath>
		
			<linearGradient id="SVGID_86_" gradientUnits="userSpaceOnUse" x1="9.1016" y1="2800" x2="10.1016" y2="2800" gradientTransform="matrix(-8.7195 383.2946 383.2946 8.7195 -1070647.75 -29631.4785)">
			<stop offset="0" style="stop-color:#FF928E"></stop>
			<stop offset="1" style="stop-color:#FE7062"></stop>
		</linearGradient>
		<polygon clip-path="url(#SVGID_85_)" fill="url(#SVGID_86_)" points="2578.864,796.579 2578.198,825.842 2301.391,819.544     2302.057,790.282   "></polygon>
	</g>
	<g clip-path="url(#SVGID_59_)">
		<defs>
			<path id="SVGID_44_" d="M2085.197,589.195c-11.908,0-20.068,12.002-15.692,23.076l75.743,191.657     c3.692,9.341,12.718,15.479,22.762,15.479h262.57l-97.677-207.118c-6.648-14.097-20.835-23.093-36.421-23.093H2085.197z"></path>
		</defs>
		<clipPath id="SVGID_87_">
			<use xlink:href="#SVGID_44_"></use>
		</clipPath>
		
			<linearGradient id="SVGID_88_" gradientUnits="userSpaceOnUse" x1="9.1016" y1="2799.9941" x2="10.1016" y2="2799.9941" gradientTransform="matrix(-27.6422 382.3808 382.3808 27.6422 -1068136.5 -80565.5156)">
			<stop offset="0" style="stop-color:#FF928E"></stop>
			<stop offset="1" style="stop-color:#FE7062"></stop>
		</linearGradient>
		<polygon clip-path="url(#SVGID_87_)" fill="url(#SVGID_88_)" points="2447.136,590.392 2428.681,845.687 2048.573,818.209     2067.028,562.914   "></polygon>
	</g>
	<g clip-path="url(#SVGID_59_)">
		<defs>
			<path id="SVGID_43_" d="M2209.914,674.736c-8.752,2.815-12.135,16.632-7.556,30.855c4.579,14.225,15.384,23.474,24.136,20.656     c8.752-2.816,12.133-16.632,7.556-30.857c-4.024-12.503-12.859-21.162-20.882-21.161     C2212.063,674.23,2210.973,674.395,2209.914,674.736"></path>
		</defs>
		<clipPath id="SVGID_89_">
			<use xlink:href="#SVGID_43_"></use>
		</clipPath>
		
			<linearGradient id="SVGID_90_" gradientUnits="userSpaceOnUse" x1="9.1016" y1="2800" x2="10.1016" y2="2800" gradientTransform="matrix(-39.1597 375.4726 375.4726 39.1597 -1048715.25 -112684.5938)">
			<stop offset="0" style="stop-color:#FEBBBA"></stop>
			<stop offset="1" style="stop-color:#FF928E"></stop>
		</linearGradient>
		<polygon clip-path="url(#SVGID_89_)" fill="url(#SVGID_90_)" points="2244.285,674.819 2238.188,733.28 2192.122,728.476     2198.219,670.015   "></polygon>
	</g>
	<g clip-path="url(#SVGID_59_)">
		<defs>
			<path id="SVGID_42_" d="M2273.537,2061.982c-127.644,96.975-255.383,196.566-377.006,261.57     c-121.624,65.008-98.494,266.534-84.176,320.634c14.32,54.1,78.424,132.672,194.037,144.587     c44.73,4.608,117.348,11.195,202.816,11.227h1.271c135.211-0.056,302.293-16.575,441.747-83.182     c194.758-93.022,229.574-429.238,229.741-592.075v-2.324c-0.027-26.888-1.002-48.891-2.343-64.083     c-9.414-106.687-123.207-169.723-123.207-169.723c-26.5-15.902-56.099-22.75-87.531-22.75     C2538.425,1865.863,2376.398,1983.835,2273.537,2061.982"></path>
		</defs>
		<clipPath id="SVGID_91_">
			<use xlink:href="#SVGID_42_"></use>
		</clipPath>
		
			<linearGradient id="SVGID_92_" gradientUnits="userSpaceOnUse" x1="9.1016" y1="2800.0195" x2="10.1016" y2="2800.0195" gradientTransform="matrix(301.4102 479.1653 -479.1653 301.4102 1341101.875 -846230.1875)">
			<stop offset="0" style="stop-color:#09005D"></stop>
			<stop offset="1" style="stop-color:#1A0F91"></stop>
		</linearGradient>
		<polygon clip-path="url(#SVGID_91_)" fill="url(#SVGID_92_)" points="1353.893,2130.694 2088.764,3298.951 3302.982,2535.169     2568.111,1366.912   "></polygon>
	</g>
	<g clip-path="url(#SVGID_59_)">
		<defs>
			<path id="SVGID_41_" d="M1812.158,2448.048c-2.604,6.832-19.922,57.272-12.699,56.132     c96.199-15.195,167.417-79.037,167.417-79.037c-3.768-63.186-34.479-64.81-34.479-64.81     C1863.561,2394.6,1824.547,2415.537,1812.158,2448.048"></path>
		</defs>
		<clipPath id="SVGID_93_">
			<use xlink:href="#SVGID_41_"></use>
		</clipPath>
		
			<linearGradient id="SVGID_94_" gradientUnits="userSpaceOnUse" x1="9.1016" y1="2800.0439" x2="10.1016" y2="2800.0439" gradientTransform="matrix(-111.3386 116.2871 -116.2871 -111.3386 328518.6875 313110.0313)">
			<stop offset="0" style="stop-color:#09005D"></stop>
			<stop offset="1" style="stop-color:#1A0F91"></stop>
		</linearGradient>
		<polygon clip-path="url(#SVGID_93_)" fill="url(#SVGID_94_)" points="1875.762,2273.096 1719.812,2435.977 1883.351,2592.557     2039.301,2429.676   "></polygon>
	</g>
	<g clip-path="url(#SVGID_59_)">
		<defs>
			<path id="SVGID_40_" d="M1888.92,2376.719c7.694,17.423,29.216,25.165,45.268,14.912c4.803-3.066,8.251-7.176,10.344-12.329     l-7.69-184.945c0,0,169.678,148.402,199.173,177.041c29.493,28.64,179.409,11.184,142.267-85.359h-64.811     c0,0-198.92-219.688-329.386-241.854C1884.084,2044.185,1793.266,2160.113,1888.92,2376.719"></path>
		</defs>
		<clipPath id="SVGID_95_">
			<use xlink:href="#SVGID_40_"></use>
		</clipPath>
		
			<linearGradient id="SVGID_96_" gradientUnits="userSpaceOnUse" x1="9.1016" y1="2799.9922" x2="10.1016" y2="2799.9922" gradientTransform="matrix(79.4702 490.6421 490.6421 -79.4702 -1372520 219923.6094)">
			<stop offset="0" style="stop-color:#4F52FF"></stop>
			<stop offset="1" style="stop-color:#4042E2"></stop>
		</linearGradient>
		<polygon clip-path="url(#SVGID_95_)" fill="url(#SVGID_96_)" points="2302.074,1961.772 2371.879,2392.74 1806.614,2484.297     1736.81,2053.329   "></polygon>
	</g>
	<g clip-path="url(#SVGID_59_)">
		<defs>
			<path id="SVGID_39_" d="M1651.7,2747.286c-2.859,17.149,1.292,34.162,29.443,30.413c28.957-3.857,63.884-21.651,86.504-34.789     c24.611-20.99,38.083-40.862,38.083-40.862l-21.127-12.922C1722.133,2696.783,1678.858,2723.487,1651.7,2747.286"></path>
		</defs>
		<clipPath id="SVGID_97_">
			<use xlink:href="#SVGID_39_"></use>
		</clipPath>
		
			<linearGradient id="SVGID_98_" gradientUnits="userSpaceOnUse" x1="9.1016" y1="2799.9893" x2="10.1016" y2="2799.9893" gradientTransform="matrix(-210.6003 154.5689 -154.5689 -210.6003 436463.5938 590986.375)">
			<stop offset="0" style="stop-color:#09005D"></stop>
			<stop offset="1" style="stop-color:#1A0F91"></stop>
		</linearGradient>
		<polygon clip-path="url(#SVGID_97_)" fill="url(#SVGID_98_)" points="1750.805,2614.29 1604.803,2721.447 1703.766,2856.284     1849.768,2749.127   "></polygon>
	</g>
	<g clip-path="url(#SVGID_59_)">
		<defs>
			<rect id="SVGID_38_" x="9.102" width="2872.866" height="2800"></rect>
		</defs>
		<clipPath id="SVGID_99_">
			<use xlink:href="#SVGID_38_"></use>
		</clipPath>
		<path clip-path="url(#SVGID_99_)" fill="#91B3FA" d="M1812.159,2448.048c16.731,5.415,24.09,29.12,66.546,13.444    c41.075-15.166,71.61-34.724,87.32-46.002c0.352,3.056,0.646,6.248,0.85,9.653c0,0-75.091,71.424-171.29,86.618    c-7.222,1.141-12.946-6.067-10.342-12.9C1789.914,2486.602,1798.337,2468.007,1812.159,2448.048"></path>
		<path clip-path="url(#SVGID_99_)" fill="#91B3FA" d="M1631.24,2767.608c5.354-6.085,12.188-13.074,20.46-20.322    c-2.859,17.15,1.292,34.162,29.444,30.413c28.956-3.857,63.884-21.651,86.503-34.789c-28.35,24.179-71.484,49.841-125.929,48.334    C1629.628,2790.909,1623.249,2776.69,1631.24,2767.608"></path>
	</g>
	<g clip-path="url(#SVGID_59_)">
		<defs>
			<path id="SVGID_37_" d="M1972.406,2336.217c0,0-173.321,143.399-204.759,362.061c0,0-5.218,16.082,26.111,18.832     c0,0,104.789-68.44,173.117-189.441c83.777-148.366,249.755-81.58,249.755-81.58c54.535-39.319,131.597-47.325,189.651-60.424     l-130.374-52.732L1972.406,2336.217z"></path>
		</defs>
		<clipPath id="SVGID_100_">
			<use xlink:href="#SVGID_37_"></use>
		</clipPath>
		
			<linearGradient id="SVGID_101_" gradientUnits="userSpaceOnUse" x1="9.1016" y1="2799.9668" x2="10.1016" y2="2799.9668" gradientTransform="matrix(525.1959 -632.3072 -632.3072 -525.1959 1767424.375 1479194.375)">
			<stop offset="0" style="stop-color:#4F52FF"></stop>
			<stop offset="1" style="stop-color:#4042E2"></stop>
		</linearGradient>
		<polygon clip-path="url(#SVGID_100_)" fill="url(#SVGID_101_)" points="1573.603,2560.27 2025.282,2016.472 2595.109,2489.771     2143.43,3033.569   "></polygon>
	</g>
	<g clip-path="url(#SVGID_59_)">
		<defs>
			<path id="SVGID_36_" d="M2075.982,2316.963l-56.943-6.711l-13.438,21.425l133.573,4.256c0,0,114.178-45.223,174.672-168.449     c1.998-4.072,35.311-72.854-45.105-79.037C2268.741,2088.446,2236.067,2252.185,2075.982,2316.963"></path>
		</defs>
		<clipPath id="SVGID_102_">
			<use xlink:href="#SVGID_36_"></use>
		</clipPath>
		
			<linearGradient id="SVGID_103_" gradientUnits="userSpaceOnUse" x1="9.1016" y1="2799.9189" x2="10.1016" y2="2799.9189" gradientTransform="matrix(142.9772 170.0269 -170.0269 142.9772 476867.875 -399742.6563)">
			<stop offset="0" style="stop-color:#FEBBBA"></stop>
			<stop offset="1" style="stop-color:#FF928E"></stop>
		</linearGradient>
		<polygon clip-path="url(#SVGID_102_)" fill="url(#SVGID_103_)" points="1883.692,2190.96 2147.909,2505.164 2471.066,2233.419     2206.85,1919.215   "></polygon>
	</g>
	<g clip-path="url(#SVGID_59_)">
		<defs>
			<rect id="SVGID_35_" x="9.102" width="2872.866" height="2800"></rect>
		</defs>
		<clipPath id="SVGID_104_">
			<use xlink:href="#SVGID_35_"></use>
		</clipPath>
		<path clip-path="url(#SVGID_104_)" fill="#91B3FA" d="M2251.232,2330.256c0,0,37.154-100.996,45.14-199.13    c0,0-27.181-23.36-44.171-33.438c-5.502-3.264-7.579-10.167-4.798-15.928c12.491-25.876,88.028-127.478,93.687-128.891    c30.756-7.675,156.889-67.648,245.724,53.865c38.125,52.148-7.566,212.682-180.53,378.93l-35.683,6.825L2251.232,2330.256z"></path>
	</g>
	<g clip-path="url(#SVGID_59_)">
		<defs>
			<path id="SVGID_34_" d="M2159.196,2293.349c0,0-34.107-31.095-59.47-19.993c-25.363,11.102-60.139,60.104-60.139,60.104h169.455     c0,0,160.229-5.646,240.295-102.806c-6.444-33.999-25.737-54.308-54.939-77.399     C2394.398,2153.255,2291.173,2275.482,2159.196,2293.349"></path>
		</defs>
		<clipPath id="SVGID_105_">
			<use xlink:href="#SVGID_34_"></use>
		</clipPath>
		
			<linearGradient id="SVGID_106_" gradientUnits="userSpaceOnUse" x1="9.1016" y1="2800.0371" x2="10.1016" y2="2800.0371" gradientTransform="matrix(-285.788 -390.9735 390.9735 -285.788 -1089864.125 806060.4375)">
			<stop offset="0" style="stop-color:#FEBBBA"></stop>
			<stop offset="1" style="stop-color:#FF928E"></stop>
		</linearGradient>
		<polygon clip-path="url(#SVGID_105_)" fill="url(#SVGID_106_)" points="2535.189,2270.705 2306.646,1958.045 1953.735,2216.01     2182.279,2528.67   "></polygon>
	</g>
	<g clip-path="url(#SVGID_59_)">
		<defs>
			<path id="SVGID_33_" d="M2382.449,1883.39l5.354,65.624c0.387,4.737,3.442,8.902,7.901,10.547     c38.987,14.395,67.408-0.417,78.282-7.864c2.974-2.035,4.25-5.774,3.216-9.225l-22.586-75.33L2382.449,1883.39z"></path>
		</defs>
		<clipPath id="SVGID_107_">
			<use xlink:href="#SVGID_33_"></use>
		</clipPath>
		
			<linearGradient id="SVGID_108_" gradientUnits="userSpaceOnUse" x1="9.1016" y1="2800.0059" x2="10.1016" y2="2800.0059" gradientTransform="matrix(-10.5268 -94.7413 94.7413 -10.5268 -262744.5 32309.168)">
			<stop offset="0" style="stop-color:#FEBBBA"></stop>
			<stop offset="1" style="stop-color:#FF928E"></stop>
		</linearGradient>
		<polygon clip-path="url(#SVGID_107_)" fill="url(#SVGID_108_)" points="2489.961,1972.652 2477.069,1856.629 2370.726,1868.444     2383.617,1984.469   "></polygon>
	</g>
	<g clip-path="url(#SVGID_59_)">
		<defs>
			<path id="SVGID_32_" d="M2322.363,1806.135c0,0,11.104,78.089,41.102,102.104c29.997,24.014,88.438,5.932,108.179-52.938     l-39.331-100.654L2322.363,1806.135z"></path>
		</defs>
		<clipPath id="SVGID_109_">
			<use xlink:href="#SVGID_32_"></use>
		</clipPath>
		
			<linearGradient id="SVGID_110_" gradientUnits="userSpaceOnUse" x1="9.1016" y1="2800.0234" x2="10.1016" y2="2800.0234" gradientTransform="matrix(46.399 -153.035 153.035 46.399 -426540.9375 -126635.3906)">
			<stop offset="0" style="stop-color:#FEBBBA"></stop>
			<stop offset="1" style="stop-color:#FF928E"></stop>
		</linearGradient>
		<polygon clip-path="url(#SVGID_109_)" fill="url(#SVGID_110_)" points="2459.076,1973.702 2520.959,1769.598 2334.931,1713.195     2273.048,1917.3   "></polygon>
	</g>
	<g clip-path="url(#SVGID_59_)">
		<defs>
			<path id="SVGID_31_" d="M2410.875,1699.768c-6.986,5.239-12.561,10.479-17.53,9.756c-19.064-2.771-26.247-1.31-29.169,0.15     c-2.262,1.132-1.971,2.262-2.659,1.43c-5.369-6.485,7.41-18.713-16.392-11.168c-25.435,8.061-26.52,33.178-25.713,44.096     c0.186,2.529-2.106,4.516-4.599,4.047c-65.518-12.307-40.407,54.12-15.615,67.318c25.427,13.539,68.614-9.196,97.369-24.673     c28.754-15.477,25.892-5.231,25.892-5.231c5.472,9.717,8.176,23.981,9.258,31.189c0.356,2.372,2.745,3.834,5.025,3.099     l7.293-2.35c1.918-0.616,3.99,0.334,4.771,2.194l16.8,40.029c1.101,2.623,4.593,3.246,6.482,1.12     c21.819-24.558,23.375-68.095,23.436-78.074c0.009-1.292,0.677-2.477,1.753-3.191c6.566-4.362,28.454-21.006,13.137-40.198     c-11.078-13.882-22.646-12.16-29.836-8.849c-2.653,1.224-5.616-0.755-5.49-3.677c0.387-9.012-3.266-23.475-26.744-33.82     c-4.852-2.138-9.305-3.019-13.418-3.019C2425.221,1689.947,2417.426,1694.857,2410.875,1699.768"></path>
		</defs>
		<clipPath id="SVGID_111_">
			<use xlink:href="#SVGID_31_"></use>
		</clipPath>
		
			<linearGradient id="SVGID_112_" gradientUnits="userSpaceOnUse" x1="9.1016" y1="2800.0156" x2="10.1016" y2="2800.0156" gradientTransform="matrix(-43.0417 245.4968 -245.4968 -43.0417 690203.8125 119890.8594)">
			<stop offset="0" style="stop-color:#09005D"></stop>
			<stop offset="1" style="stop-color:#1A0F91"></stop>
		</linearGradient>
		<polygon clip-path="url(#SVGID_111_)" fill="url(#SVGID_112_)" points="2257.539,1642.926 2219.877,1857.742 2517.487,1909.921     2555.15,1695.104   "></polygon>
	</g>
	<g clip-path="url(#SVGID_59_)">
		<defs>
			<path id="SVGID_30_" d="M2436.389,1827.907l3.928,20.9c17.854-5.692,37.499-35.552,21.916-49.118     c-2.178-1.896-4.249-2.711-6.205-2.711C2443.982,1796.982,2436.389,1827.907,2436.389,1827.907"></path>
		</defs>
		<clipPath id="SVGID_113_">
			<use xlink:href="#SVGID_30_"></use>
		</clipPath>
		
			<linearGradient id="SVGID_114_" gradientUnits="userSpaceOnUse" x1="9.1016" y1="2800.0313" x2="10.1016" y2="2800.0313" gradientTransform="matrix(46.3993 -153.036 153.036 46.3993 -426495.7813 -126621.6328)">
			<stop offset="0" style="stop-color:#FEBBBA"></stop>
			<stop offset="1" style="stop-color:#FF928E"></stop>
		</linearGradient>
		<polygon clip-path="url(#SVGID_113_)" fill="url(#SVGID_114_)" points="2474.328,1860.311 2492.207,1801.342 2439.876,1785.476     2421.997,1844.444   "></polygon>
	</g>
	<g clip-path="url(#SVGID_59_)">
		<defs>
			<path id="SVGID_29_" d="M1831.485,2083.108l85.056,242.314c2.741,7.806,9.748,13.324,17.981,14.155l101.157,11.234l12.439-7.868     l-76.086-253.736c-3.104-10.352-12.299-17.695-23.082-18.434l-102.724-7.028c-0.347-0.024-0.693-0.035-1.034-0.035     C1835.28,2063.71,1828.135,2073.561,1831.485,2083.108"></path>
		</defs>
		<clipPath id="SVGID_115_">
			<use xlink:href="#SVGID_29_"></use>
		</clipPath>
		
			<linearGradient id="SVGID_116_" gradientUnits="userSpaceOnUse" x1="9.1016" y1="2800" x2="10.1016" y2="2800" gradientTransform="matrix(-217.4712 0 0 -217.4712 4027.4351 611126.5625)">
			<stop offset="0" style="stop-color:#09005D"></stop>
			<stop offset="1" style="stop-color:#1A0F91"></stop>
		</linearGradient>
		<rect x="1828.135" y="2063.71" clip-path="url(#SVGID_115_)" fill="url(#SVGID_116_)" width="219.984" height="287.103"></rect>
	</g>
	<g clip-path="url(#SVGID_59_)">
		<defs>
			<path id="SVGID_28_" d="M1909.138,2148.685c-6.421,3.182-7.021,15.056-1.341,26.522c5.681,11.465,15.49,18.181,21.91,15.001     c6.421-3.181,7.021-15.055,1.341-26.521c-4.727-9.539-12.311-15.791-18.423-15.791     C1911.391,2147.896,1910.217,2148.151,1909.138,2148.685"></path>
		</defs>
		<clipPath id="SVGID_117_">
			<use xlink:href="#SVGID_28_"></use>
		</clipPath>
		
			<linearGradient id="SVGID_118_" gradientUnits="userSpaceOnUse" x1="9.1016" y1="2799.9609" x2="10.1016" y2="2799.9609" gradientTransform="matrix(31.0439 0 0 -31.0439 1621.3539 89092.4922)">
			<stop offset="0" style="stop-color:#4F52FF"></stop>
			<stop offset="1" style="stop-color:#4042E2"></stop>
		</linearGradient>
		<rect x="1902.117" y="2147.896" clip-path="url(#SVGID_117_)" fill="url(#SVGID_118_)" width="34.61" height="45.491"></rect>
	</g>
	<g clip-path="url(#SVGID_59_)">
		<defs>
			<path id="SVGID_27_" d="M2250.744,2320.609l-215.544,10.894c-5.327,0.269-9.43,4.806-9.159,10.135     c0.26,5.162,4.528,9.175,9.639,9.175c0.165,0,0.33-0.006,0.496-0.015l215.544-10.895c5.329-0.268,9.429-4.806,9.161-10.134     c-0.258-5.116-4.467-9.183-9.502-9.183C2251.168,2320.587,2250.957,2320.594,2250.744,2320.609"></path>
		</defs>
		<clipPath id="SVGID_119_">
			<use xlink:href="#SVGID_27_"></use>
		</clipPath>
		
			<linearGradient id="SVGID_120_" gradientUnits="userSpaceOnUse" x1="9.1016" y1="2800" x2="10.1016" y2="2800" gradientTransform="matrix(173.8908 47.6589 -47.6589 173.8908 134134.9375 -484956.9688)">
			<stop offset="0" style="stop-color:#09005D"></stop>
			<stop offset="1" style="stop-color:#1A0F91"></stop>
		</linearGradient>
		<polygon clip-path="url(#SVGID_119_)" fill="url(#SVGID_120_)" points="2018.065,2348.7 2244.703,2410.815 2268.854,2322.699     2042.216,2260.583   "></polygon>
	</g>
	<g clip-path="url(#SVGID_59_)">
		<defs>
			<path id="SVGID_26_" d="M2312.205,2024.749c-0.18,0.603-17.696,60.851-17.543,106.383c0,0.94,0.768,1.702,1.707,1.702     c0.94,0,1.715-0.767,1.709-1.715c-0.146-45.029,17.232-104.811,17.411-105.41c0.266-0.903-0.252-1.854-1.159-2.122     c-0.16-0.045-0.323-0.067-0.482-0.067C2313.101,2023.52,2312.424,2023.999,2312.205,2024.749"></path>
		</defs>
		<clipPath id="SVGID_121_">
			<use xlink:href="#SVGID_26_"></use>
		</clipPath>
		
			<linearGradient id="SVGID_122_" gradientUnits="userSpaceOnUse" x1="9.1016" y1="2800" x2="10.1016" y2="2800" gradientTransform="matrix(562.0574 748.6419 748.6419 -562.0574 -2099324.75 1568603.5)">
			<stop offset="0" style="stop-color:#4F52FF"></stop>
			<stop offset="1" style="stop-color:#4042E2"></stop>
		</linearGradient>
		<polygon clip-path="url(#SVGID_121_)" fill="url(#SVGID_122_)" points="2308.096,2013.319 2368.24,2093.43 2302.167,2143.035     2242.022,2062.925   "></polygon>
	</g>
	<g clip-path="url(#SVGID_59_)">
		<defs>
			<path id="SVGID_25_" d="M2456.385,2051.459c-16.028,40.605-62.857,100.141-63.334,100.737c-0.583,0.741-0.457,1.816,0.283,2.399     c0.312,0.25,0.69,0.369,1.06,0.369c0.504,0,1.008-0.223,1.346-0.648c0.47-0.602,47.618-60.527,63.823-101.6     c0.352-0.88-0.085-1.874-0.959-2.218c-0.208-0.082-0.422-0.121-0.632-0.121     C2457.289,2050.378,2456.648,2050.786,2456.385,2051.459"></path>
		</defs>
		<clipPath id="SVGID_123_">
			<use xlink:href="#SVGID_25_"></use>
		</clipPath>
		
			<linearGradient id="SVGID_124_" gradientUnits="userSpaceOnUse" x1="9.1016" y1="2800" x2="10.1016" y2="2800" gradientTransform="matrix(562.0488 748.6304 748.6304 -562.0488 -2099226.75 1568530.125)">
			<stop offset="0" style="stop-color:#4F52FF"></stop>
			<stop offset="1" style="stop-color:#4042E2"></stop>
		</linearGradient>
		<polygon clip-path="url(#SVGID_123_)" fill="url(#SVGID_124_)" points="2435.602,2017.994 2510.131,2117.265 2416.78,2187.349     2342.251,2088.079   "></polygon>
	</g>
	<g clip-path="url(#SVGID_59_)">
		<defs>
			<path id="SVGID_24_" d="M2569.709,2133.046c-0.411,0.805-41.467,80.144-107.78,109.308l-7.028-9.928     c-0.556-0.779-1.622-0.951-2.384-0.411c-0.775,0.548-0.953,1.613-0.41,2.386l8.63,12.191l1.271-0.543     c68.201-29.2,110.33-110.629,110.748-111.445c0.43-0.846,0.092-1.875-0.749-2.303c-0.244-0.126-0.507-0.186-0.769-0.186     C2570.623,2132.115,2570.021,2132.45,2569.709,2133.046"></path>
		</defs>
		<clipPath id="SVGID_125_">
			<use xlink:href="#SVGID_24_"></use>
		</clipPath>
		
			<linearGradient id="SVGID_126_" gradientUnits="userSpaceOnUse" x1="9.1016" y1="2799.9971" x2="10.1016" y2="2799.9971" gradientTransform="matrix(562.0489 748.6305 748.6305 -562.0489 -2099211 1568518.25)">
			<stop offset="0" style="stop-color:#4F52FF"></stop>
			<stop offset="1" style="stop-color:#4042E2"></stop>
		</linearGradient>
		<polygon clip-path="url(#SVGID_125_)" fill="url(#SVGID_126_)" points="2529.344,2073.72 2628.15,2205.326 2495.404,2304.987     2396.599,2173.381   "></polygon>
	</g>
	<g clip-path="url(#SVGID_59_)">
		<defs>
			<rect id="SVGID_22_" x="9.102" width="2872.866" height="2800"></rect>
		</defs>
		<clipPath id="SVGID_127_">
			<use xlink:href="#SVGID_22_"></use>
		</clipPath>
		<path clip-path="url(#SVGID_127_)" fill="#0B69A2" d="M1062.6,2681.677c1.067,0,2.148-0.062,3.233-0.185    c15.383-1.766,26.419-15.666,24.65-31.052L914.513,1119.11c-1.767-15.372-15.693-26.391-31.049-24.646    c-15.383,1.766-26.419,15.666-24.649,31.052l175.97,1531.331C1036.428,2671.137,1048.549,2681.677,1062.6,2681.677"></path>
		<path clip-path="url(#SVGID_127_)" fill="#0B69A2" d="M95.278,2681.684c12.829,0,24.403-8.863,27.329-21.907l343.346-1531.331    c3.385-15.106-6.114-30.101-21.223-33.489c-15.074-3.361-30.098,6.112-33.489,21.224L67.898,2647.512    c-3.389,15.104,6.111,30.1,21.22,33.488C91.181,2681.458,93.245,2681.684,95.278,2681.684"></path>
		<path clip-path="url(#SVGID_127_)" fill="#0B69A2" d="M675.111,2681.677c15.481,0,28.033-12.552,28.033-28.033v-755.737    c0-15.482-12.552-28.034-28.033-28.034c-15.482,0-28.034,12.552-28.034,28.034v755.737    C647.077,2669.125,659.629,2681.677,675.111,2681.677"></path>
		<path clip-path="url(#SVGID_127_)" fill="#0B69A2" d="M1236.142,950.991l-98.563,1241.438    c-2.085,26.257-24.327,46.307-50.66,45.664l-1029.41-25.108c-30.011-0.732-52.499-27.743-47.779-57.39L206.798,917.713    c3.903-24.513,25.323-42.368,50.137-41.793l930.905,21.552C1216.32,898.133,1238.396,922.592,1236.142,950.991"></path>
		<g opacity="0.97" clip-path="url(#SVGID_127_)">
			<g>
				<defs>
					<rect id="SVGID_23_" x="50.007" y="911.65" width="1148.424" height="1290.614"></rect>
				</defs>
				<clipPath id="SVGID_128_">
					<use xlink:href="#SVGID_23_"></use>
				</clipPath>
				<path clip-path="url(#SVGID_128_)" fill="#FFFFFF" d="M1149.975,931.646l-863.248-19.985      c-24.815-0.575-46.234,17.281-50.138,41.794L50.635,2121.537c-4.719,29.646,17.769,56.657,47.779,57.39l956.196,23.323      c26.333,0.642,48.575-19.408,50.66-45.666l93.006-1171.419C1200.531,956.764,1178.456,932.305,1149.975,931.646"></path>
			</g>
		</g>
		<path clip-path="url(#SVGID_127_)" fill="#91B3FA" d="M684.12,1051.117l435.08,24.265c4.459,0.249,7.831,4.133,7.449,8.585    l-0.599,6.987c-0.371,4.315-4.14,7.533-8.46,7.222l-434.479-31.252c-4.405-0.318-7.7-4.176-7.322-8.578    C676.154,1054.081,679.845,1050.879,684.12,1051.117"></path>
		<path clip-path="url(#SVGID_127_)" fill="#91B3FA" d="M672.665,1094.73l-0.256,2.978c-0.373,4.358,2.857,8.194,7.214,8.568    l433.966,37.245c4.358,0.374,8.194-2.855,8.568-7.213l0.255-2.978c0.374-4.358-2.854-8.194-7.213-8.568l-433.966-37.246    C676.876,1087.143,673.039,1090.374,672.665,1094.73"></path>
		<path clip-path="url(#SVGID_127_)" fill="#91B3FA" d="M801.042,1144.939l-0.111,1.308c-0.375,4.357,2.855,8.193,7.213,8.567    l302.25,25.941c4.357,0.374,8.193-2.856,8.567-7.213l0.527-6.144c0.379-4.407-2.926-8.27-7.34-8.578l-302.665-21.105    C805.17,1137.416,801.412,1140.63,801.042,1144.939"></path>
		<path clip-path="url(#SVGID_127_)" fill="#91B3FA" d="M1002.851,1421.979c-1.949,0-3.894-0.735-5.379-2.183l-132.418-128.478    l-149.581,90.501c-3.482,2.113-8.013,1.152-10.351-2.204l-175.458-252.758c-32.61,23.867-179.707,131.526-199.935,146.29    c-3.439,2.524-8.276,1.762-10.797-1.686c-2.516-3.447-1.763-8.28,1.685-10.795c22.771-16.623,206.31-150.959,206.31-150.959    c1.68-1.23,3.79-1.746,5.843-1.381c2.053,0.341,3.88,1.502,5.071,3.213l175.838,253.303l148.477-89.829    c3.011-1.819,6.861-1.382,9.376,1.066l132.025,128.095l80.834-58.959c3.447-2.516,8.285-1.758,10.792,1.688    c2.517,3.447,1.759,8.281-1.688,10.793l-86.092,62.795C1006.039,1421.49,1004.443,1421.979,1002.851,1421.979"></path>
		<path clip-path="url(#SVGID_127_)" fill="#91B3FA" d="M501.748,1492.145c-0.151,0-0.304-0.006-0.46-0.019    c-2.832-0.251-4.928-2.75-4.677-5.587l1.36-15.393c0.256-2.827,2.76-4.884,5.588-4.677c2.831,0.252,4.927,2.75,4.677,5.587    l-1.361,15.392C506.638,1490.125,504.39,1492.145,501.748,1492.145 M506.277,1440.836c-0.15,0-0.302-0.004-0.458-0.017    c-2.833-0.252-4.929-2.75-4.677-5.587l1.359-15.392c0.256-2.828,2.776-4.898,5.587-4.678c2.833,0.251,4.929,2.75,4.678,5.587    l-1.361,15.392C511.167,1438.818,508.919,1440.836,506.277,1440.836 M510.808,1389.529c-0.153,0-0.303-0.004-0.459-0.018    c-2.833-0.251-4.929-2.75-4.678-5.586l1.36-15.396c0.256-2.828,2.715-4.902,5.587-4.676c2.832,0.251,4.928,2.75,4.677,5.586    l-1.36,15.396C515.697,1387.511,513.449,1389.529,510.808,1389.529 M515.337,1338.218c-0.15,0-0.303-0.004-0.454-0.017    c-2.837-0.252-4.929-2.75-4.682-5.583l1.356-15.391c0.252-2.837,2.82-4.92,5.582-4.682c2.837,0.252,4.929,2.75,4.681,5.583    l-1.354,15.392C520.227,1336.2,517.98,1338.218,515.337,1338.218 M519.868,1286.911c-0.152,0-0.303-0.004-0.456-0.017    c-2.836-0.251-4.927-2.75-4.681-5.582l1.356-15.392c0.255-2.832,2.837-4.933,5.582-4.682c2.837,0.251,4.929,2.75,4.682,5.582    l-1.356,15.392C524.758,1284.894,522.51,1286.911,519.868,1286.911 M524.394,1235.605c-0.153,0-0.304-0.004-0.459-0.018    c-2.832-0.251-4.93-2.75-4.677-5.587l1.358-15.395c0.256-2.829,2.777-4.855,5.588-4.678c2.832,0.252,4.929,2.75,4.677,5.587    l-1.359,15.396C529.283,1233.586,527.035,1235.605,524.394,1235.605 M528.923,1184.293c-0.151,0-0.303-0.004-0.458-0.018    c-2.833-0.251-4.929-2.75-4.678-5.586l1.36-15.391c0.255-2.828,2.715-4.864,5.587-4.678c2.833,0.251,4.928,2.75,4.677,5.587    l-1.359,15.392C533.813,1182.275,531.566,1184.293,528.923,1184.293"></path>
		<path clip-path="url(#SVGID_127_)" fill="#91B3FA" d="M699.89,1511.589c-0.152,0-0.303-0.005-0.46-0.017    c-2.832-0.252-4.928-2.75-4.677-5.588l1.36-15.392c0.256-2.828,2.785-4.859,5.587-4.678c2.832,0.252,4.929,2.75,4.677,5.587    l-1.36,15.392C704.779,1509.57,702.531,1511.589,699.89,1511.589 M704.421,1460.281c-0.153,0-0.305-0.004-0.46-0.017    c-2.832-0.252-4.929-2.751-4.677-5.587l1.359-15.396c0.251-2.828,2.725-4.863,5.587-4.677c2.832,0.251,4.929,2.75,4.678,5.586    l-1.36,15.396C709.309,1458.264,707.061,1460.281,704.421,1460.281 M708.95,1408.971c-0.152,0-0.304-0.005-0.459-0.018    c-2.833-0.251-4.929-2.75-4.678-5.586l1.36-15.393c0.252-2.828,2.742-4.877,5.588-4.678c2.832,0.252,4.927,2.751,4.676,5.587    l-1.36,15.392C713.84,1406.952,711.592,1408.971,708.95,1408.971"></path>
		<path clip-path="url(#SVGID_127_)" fill="#91B3FA" d="M849.584,1531.077c-0.101,0-0.199,0-0.3-0.009    c-2.836-0.16-5.01-2.595-4.846-5.436l0.88-15.431c0.16-2.836,2.59-5.05,5.435-4.847c2.836,0.161,5.011,2.595,4.846,5.436    l-0.879,15.431C854.563,1528.959,852.295,1531.077,849.584,1531.077 M852.52,1479.648c-0.099,0-0.2,0-0.298-0.009    c-2.837-0.159-5.012-2.594-4.847-5.435l0.879-15.427c0.16-2.841,2.586-5.071,5.435-4.846c2.837,0.16,5.011,2.594,4.847,5.436    l-0.88,15.426C857.501,1477.531,855.23,1479.648,852.52,1479.648 M855.456,1428.225c-0.1,0-0.199,0-0.299-0.009    c-2.837-0.16-5.011-2.594-4.847-5.435l0.88-15.426c0.16-2.842,2.581-5.098,5.435-4.847c2.837,0.16,5.012,2.595,4.847,5.436    l-0.879,15.426C860.436,1426.107,858.167,1428.225,855.456,1428.225 M858.392,1376.801c-0.098,0-0.199,0-0.298-0.008    c-2.837-0.161-5.01-2.595-4.846-5.436l0.879-15.426c0.16-2.836,2.577-5.118,5.435-4.846c2.836,0.16,5.01,2.594,4.846,5.436    l-0.88,15.425C863.374,1374.684,861.103,1376.801,858.392,1376.801 M861.328,1325.377c-0.099,0-0.199,0-0.298-0.008    c-2.837-0.161-5.012-2.595-4.847-5.435l0.88-15.427c0.16-2.836,2.577-5.145,5.435-4.846c2.837,0.16,5.011,2.594,4.847,5.436    l-0.88,15.426C866.309,1323.26,864.041,1325.377,861.328,1325.377"></path>
		<path clip-path="url(#SVGID_127_)" fill="#91B3FA" d="M993.492,1546.971c-0.152,0-0.303-0.004-0.46-0.018    c-2.832-0.25-4.928-2.75-4.677-5.586l1.36-15.392c0.251-2.828,2.724-4.886,5.587-4.678c2.832,0.251,4.929,2.75,4.677,5.587    l-1.36,15.392C998.381,1544.953,996.134,1546.971,993.492,1546.971 M998.021,1495.664c-0.152,0-0.304-0.004-0.459-0.018    c-2.832-0.251-4.929-2.75-4.677-5.587l1.359-15.396c0.251-2.828,2.746-4.89,5.587-4.678c2.832,0.252,4.929,2.75,4.678,5.587    l-1.36,15.396C1002.911,1493.646,1000.663,1495.664,998.021,1495.664 M1002.552,1444.353c-0.152,0-0.304-0.004-0.459-0.017    c-2.833-0.252-4.929-2.75-4.678-5.587l1.361-15.392c0.255-2.828,2.762-4.902,5.587-4.678c2.832,0.251,4.927,2.75,4.676,5.587    l-1.36,15.392C1007.442,1442.335,1005.194,1444.353,1002.552,1444.353"></path>
		<path clip-path="url(#SVGID_127_)" fill="#91B3FA" d="M285.58,1529.557c-0.255,0-0.515-0.013-0.774-0.039    c-4.249-0.424-7.345-4.209-6.921-8.453l46.434-464.413c0.42-4.253,4.21-7.345,8.454-6.92c4.248,0.424,7.345,4.209,6.92,8.453    l-46.433,464.413C292.86,1526.586,289.505,1529.557,285.58,1529.557"></path>
		<polygon clip-path="url(#SVGID_127_)" fill="#91B3FA" points="302.876,1085.438 331.55,1061.961 355.01,1090.649     357.223,1068.517 333.763,1039.844 305.089,1063.304   "></polygon>
		<path clip-path="url(#SVGID_127_)" fill="#91B3FA" d="M1084.049,1577.382c-0.229,0-0.46-0.009-0.689-0.03l-827.129-73.021    c-4.248-0.377-7.393-4.123-7.016-8.376c0.372-4.253,4.192-7.405,8.376-7.016l827.129,73.021c4.249,0.377,7.392,4.123,7.016,8.376    C1091.381,1574.354,1088.007,1577.382,1084.049,1577.382"></path>
		<polygon clip-path="url(#SVGID_127_)" fill="#91B3FA" points="1051.078,1593.043 1079.492,1569.253 1055.686,1540.854     1077.842,1542.809 1101.634,1571.208 1073.234,1594.999   "></polygon>
	</g>
	<g clip-path="url(#SVGID_59_)">
		<defs>
			<path id="SVGID_21_" d="M346.188,2599.818c-13.135,40.594-11.448,65.49-9.338,76.58c0.059,0.311,0.153,0.605,0.235,0.906     c18.848,1.686,57.642,2.784,101.465-2.203c0.012-0.769-0.04-1.547-0.236-2.33c-11.617-46.057-69.278-74.744-69.278-74.744     L346.188,2599.818z"></path>
		</defs>
		<clipPath id="SVGID_129_">
			<use xlink:href="#SVGID_21_"></use>
		</clipPath>
		
			<linearGradient id="SVGID_130_" gradientUnits="userSpaceOnUse" x1="9.1016" y1="2799.9922" x2="10.1016" y2="2799.9922" gradientTransform="matrix(103.1455 0 0 -103.1455 -603.3829 291445.7813)">
			<stop offset="0" style="stop-color:#09005D"></stop>
			<stop offset="1" style="stop-color:#1A0F91"></stop>
		</linearGradient>
		<rect x="333.053" y="2598.027" clip-path="url(#SVGID_129_)" fill="url(#SVGID_130_)" width="105.509" height="82.062"></rect>
	</g>
	<g clip-path="url(#SVGID_59_)">
		<defs>
			<path id="SVGID_20_" d="M337.084,2677.305c1.018,3.704,3.752,6.587,7.251,7.322c26.811,5.639,69.424,1.102,87.316-1.237     c3.947-0.517,6.832-4.167,6.898-8.288C394.727,2680.089,355.933,2678.99,337.084,2677.305"></path>
		</defs>
		<clipPath id="SVGID_131_">
			<use xlink:href="#SVGID_20_"></use>
		</clipPath>
		
			<linearGradient id="SVGID_132_" gradientUnits="userSpaceOnUse" x1="9.1016" y1="2800.0068" x2="10.1016" y2="2800.0068" gradientTransform="matrix(-375.2458 294.644 294.644 375.2458 -820994.125 -1050853.375)">
			<stop offset="0" style="stop-color:#4F52FF"></stop>
			<stop offset="1" style="stop-color:#4042E2"></stop>
		</linearGradient>
		<polygon clip-path="url(#SVGID_131_)" fill="url(#SVGID_132_)" points="445.915,2684.482 375.783,2739.551 329.719,2680.886     399.851,2625.817   "></polygon>
	</g>
	<g clip-path="url(#SVGID_59_)">
		<defs>
			<path id="SVGID_19_" d="M670.098,1190.687c-2.687,22.389,17.432,24.18,17.432,24.18l144.666-54.513l-11.597-24.297     L670.098,1190.687z"></path>
		</defs>
		<clipPath id="SVGID_133_">
			<use xlink:href="#SVGID_19_"></use>
		</clipPath>
		
			<linearGradient id="SVGID_134_" gradientUnits="userSpaceOnUse" x1="9.1016" y1="2799.998" x2="10.1016" y2="2799.998" gradientTransform="matrix(-397.6342 411.9634 411.9634 397.6342 -1148775.5 -1116314.375)">
			<stop offset="0" style="stop-color:#E1473D"></stop>
			<stop offset="1" style="stop-color:#E9605A"></stop>
		</linearGradient>
		<polygon clip-path="url(#SVGID_133_)" fill="url(#SVGID_134_)" points="871.576,1174.067 752.719,1297.208 628.03,1176.856     746.887,1053.716   "></polygon>
	</g>
	<g clip-path="url(#SVGID_59_)">
		<defs>
			<path id="SVGID_18_" d="M820.599,1136.057c-4.432,13.433,11.597,24.297,11.597,24.297l27.294-19.317     c-1.458-3.83-2.359-7.438-2.88-10.649L820.599,1136.057z"></path>
		</defs>
		<clipPath id="SVGID_135_">
			<use xlink:href="#SVGID_18_"></use>
		</clipPath>
		
			<linearGradient id="SVGID_136_" gradientUnits="userSpaceOnUse" x1="9.1016" y1="2800.0098" x2="10.1016" y2="2800.0098" gradientTransform="matrix(-197.0255 225.6837 225.6837 197.0255 -629218.9375 -552658.125)">
			<stop offset="0" style="stop-color:#FEBBBA"></stop>
			<stop offset="1" style="stop-color:#FF928E"></stop>
		</linearGradient>
		<polygon clip-path="url(#SVGID_135_)" fill="url(#SVGID_136_)" points="874.335,1143.349 840.752,1181.817 801.321,1147.394     834.904,1108.925   "></polygon>
	</g>
	<g clip-path="url(#SVGID_59_)">
		<defs>
			<path id="SVGID_17_" d="M856.609,1130.388c0.521,3.211,1.422,6.819,2.88,10.649l20.17-14.277L856.609,1130.388z"></path>
		</defs>
		<clipPath id="SVGID_137_">
			<use xlink:href="#SVGID_17_"></use>
		</clipPath>
		
			<linearGradient id="SVGID_138_" gradientUnits="userSpaceOnUse" x1="9.1016" y1="2800.0195" x2="10.1016" y2="2800.0195" gradientTransform="matrix(-103.8826 134.3308 134.3308 103.8826 -374218.2813 -291087.0625)">
			<stop offset="0" style="stop-color:#09005D"></stop>
			<stop offset="1" style="stop-color:#1A0F91"></stop>
		</linearGradient>
		<polygon clip-path="url(#SVGID_137_)" fill="url(#SVGID_138_)" points="886.568,1132.103 871.033,1152.191 849.701,1135.694     865.236,1115.605   "></polygon>
	</g>
	<g clip-path="url(#SVGID_59_)">
		<defs>
			<path id="SVGID_16_" d="M197.097,1895.983c21.834,26.989,51.381,54.019,90.495,80.473l11.193,25.122l35.867-42.988     c0,0-64.358-32.027-88.045-98.8C232.495,1874.851,211.717,1887.867,197.097,1895.983"></path>
		</defs>
		<clipPath id="SVGID_139_">
			<use xlink:href="#SVGID_16_"></use>
		</clipPath>
		
			<linearGradient id="SVGID_140_" gradientUnits="userSpaceOnUse" x1="9.1016" y1="2800" x2="10.1016" y2="2800" gradientTransform="matrix(137.5547 0 0 -137.5547 -1054.8923 387083.8125)">
			<stop offset="0" style="stop-color:#FEBBBA"></stop>
			<stop offset="1" style="stop-color:#FF928E"></stop>
		</linearGradient>
		<rect x="197.097" y="1859.79" clip-path="url(#SVGID_139_)" fill="url(#SVGID_140_)" width="137.555" height="141.788"></rect>
	</g>
	<g clip-path="url(#SVGID_59_)">
		<defs>
			<path id="SVGID_15_" d="M337.001,2565.787l9.677,46.584c0.708,3.414,3.332,5.971,6.509,6.269     c3.888,0.364,9.424,0.579,14.992-0.238c4.993-0.734,8.469-5.808,7.583-11.251l-6.727-41.363H337.001z"></path>
		</defs>
		<clipPath id="SVGID_141_">
			<use xlink:href="#SVGID_15_"></use>
		</clipPath>
		
			<linearGradient id="SVGID_142_" gradientUnits="userSpaceOnUse" x1="9.1016" y1="2800.0059" x2="10.1016" y2="2800.0059" gradientTransform="matrix(-19.7026 171.9505 171.9505 19.7026 -480918.125 -54211.25)">
			<stop offset="0" style="stop-color:#FEBBBA"></stop>
			<stop offset="1" style="stop-color:#FF928E"></stop>
		</linearGradient>
		<polygon clip-path="url(#SVGID_141_)" fill="url(#SVGID_142_)" points="382.691,2566.479 376.135,2623.703 330.958,2618.526     337.515,2561.303   "></polygon>
	</g>
	<g clip-path="url(#SVGID_59_)">
		<defs>
			<path id="SVGID_14_" d="M492.55,2678.109c0.086,2.825,2.178,5.084,4.753,5.065l138.552-0.894c4.421-0.028,7.005-5.156,5.09-9.211     c-18.167,1.502-64.434,4.857-103.442,3.767c-25.235-0.706-38.287-3.678-45.034-6.435     C492.452,2672.91,492.469,2675.464,492.55,2678.109"></path>
		</defs>
		<clipPath id="SVGID_143_">
			<use xlink:href="#SVGID_14_"></use>
		</clipPath>
		
			<linearGradient id="SVGID_144_" gradientUnits="userSpaceOnUse" x1="9.1016" y1="2800.0039" x2="10.1016" y2="2800.0039" gradientTransform="matrix(-375.2446 294.643 294.643 375.2446 -820924.6875 -1050765)">
			<stop offset="0" style="stop-color:#4F52FF"></stop>
			<stop offset="1" style="stop-color:#4042E2"></stop>
		</linearGradient>
		<polygon clip-path="url(#SVGID_143_)" fill="url(#SVGID_144_)" points="649.072,2678.314 549.816,2756.251 486.239,2675.28     585.495,2597.345   "></polygon>
	</g>
	<g clip-path="url(#SVGID_59_)">
		<defs>
			<path id="SVGID_13_" d="M492.469,2670.402c6.747,2.757,19.799,5.729,45.034,6.435c39.008,1.091,85.275-2.265,103.442-3.767     c-0.168-0.354-0.311-0.713-0.549-1.045c-12.236-17.097-43.401-51.142-104.982-65.907l-29.543-0.933     C505.871,2605.186,492.717,2628.049,492.469,2670.402"></path>
		</defs>
		<clipPath id="SVGID_145_">
			<use xlink:href="#SVGID_13_"></use>
		</clipPath>
		
			<linearGradient id="SVGID_146_" gradientUnits="userSpaceOnUse" x1="9.1011" y1="2799.9971" x2="10.1011" y2="2799.9971" gradientTransform="matrix(148.4756 0 0 -148.4756 -858.8871 418372.8125)">
			<stop offset="0" style="stop-color:#09005D"></stop>
			<stop offset="1" style="stop-color:#1A0F91"></stop>
		</linearGradient>
		<rect x="492.469" y="2605.186" clip-path="url(#SVGID_145_)" fill="url(#SVGID_146_)" width="148.476" height="72.742"></rect>
	</g>
	<g clip-path="url(#SVGID_59_)">
		<defs>
			<path id="SVGID_12_" d="M500.394,2560.413c0.328,2.202,4.377,35.671,5.945,48.647c0.371,3.083,2.605,5.471,5.422,5.806     c5.03,0.601,13.17,1.148,20.292-0.312c3.842-0.788,6.623-4.478,6.623-8.77v-52.536L500.394,2560.413z"></path>
		</defs>
		<clipPath id="SVGID_147_">
			<use xlink:href="#SVGID_12_"></use>
		</clipPath>
		
			<linearGradient id="SVGID_148_" gradientUnits="userSpaceOnUse" x1="9.1016" y1="2800.001" x2="10.1016" y2="2800.001" gradientTransform="matrix(-19.7025 171.9496 171.9496 19.7025 -480755.0938 -54192.6445)">
			<stop offset="0" style="stop-color:#FEBBBA"></stop>
			<stop offset="1" style="stop-color:#FF928E"></stop>
		</linearGradient>
		<polygon clip-path="url(#SVGID_147_)" fill="url(#SVGID_148_)" points="545.774,2554.063 538.179,2620.345 493.295,2615.201     500.89,2548.919   "></polygon>
	</g>
	<g clip-path="url(#SVGID_59_)">
		<defs>
			<path id="SVGID_11_" d="M320.74,1949.635c0,0-31.611,52.133-31.708,64.123c-1.742,212.621,39.221,507.778,46.335,557.364     c0.632,4.402,4.199,7.744,8.62,8.213c11.646,1.236,20.798,0.735,26.518,0.073c3.771-0.436,6.548-3.727,6.377-7.518     c-6.87-152.516,14.622-446.489,14.622-446.489c32.668,53.586,90.003,383.654,99.994,442.243     c0.979,5.74,5.844,10.057,11.664,10.221c10.903,0.305,24.073-1.936,33.03-3.822c6.081-1.28,10.442-6.643,10.466-12.854     c1.288-340.764-69.966-611.554-69.966-611.554H320.74z"></path>
		</defs>
		<clipPath id="SVGID_149_">
			<use xlink:href="#SVGID_11_"></use>
		</clipPath>
		
			<linearGradient id="SVGID_150_" gradientUnits="userSpaceOnUse" x1="9.1016" y1="2799.9922" x2="10.1016" y2="2799.9922" gradientTransform="matrix(-630.1554 977.8283 977.8283 630.1554 -2731425 -1771582.25)">
			<stop offset="0" style="stop-color:#09005D"></stop>
			<stop offset="1" style="stop-color:#1A0F91"></stop>
		</linearGradient>
		<polygon clip-path="url(#SVGID_149_)" fill="url(#SVGID_150_)" points="835.235,2134.777 471.458,2699.258 0,2395.43     363.776,1830.948   "></polygon>
	</g>
	<g clip-path="url(#SVGID_59_)">
		<defs>
			<rect id="SVGID_10_" x="9.102" width="2872.866" height="2800"></rect>
		</defs>
		<clipPath id="SVGID_151_">
			<use xlink:href="#SVGID_10_"></use>
		</clipPath>
		<path clip-path="url(#SVGID_151_)" fill="#6ED69A" d="M709.692,1366.512c-31.277,58.217-83.196,117.624-167.67,133.546    c-77.985,14.697-218.021,32.859-274.309,39.951c-16.928,2.132-32.411,10.478-43.565,23.388    c-44.237,51.193-141.311,191.354-27.052,332.587c14.62-8.116,35.399-21.132,49.51-36.193    c-12.641-35.634-13.676-81.172,12.816-137.011c0.905,4.424,2.024,8.807,3.384,13.118c36.513,115.677,38.461,211.938,38.38,234.124    c-0.012,3.012,1.797,5.725,4.594,6.846c48.057,19.257,140.561,7.796,171.613,3.168c5.695-0.849,9.525-6.148,8.738-11.852    c-15.241-110.411,62.974-292.044,83.631-337.537c3.024-6.656,8.349-12,15.008-15.014    c118.133-53.441,169.491-135.705,190.311-209.813C757.074,1381.638,729.157,1371.079,709.692,1366.512"></path>
	</g>
	<g clip-path="url(#SVGID_59_)">
		<defs>
			<path id="SVGID_9_" d="M753.778,1238.157c0,0-9.209,63.437-44.086,128.354c19.465,4.568,47.382,15.127,65.388,39.309     c25.238-89.822,5.611-167.662,5.611-167.662H753.778z"></path>
		</defs>
		<clipPath id="SVGID_152_">
			<use xlink:href="#SVGID_9_"></use>
		</clipPath>
		
			<linearGradient id="SVGID_153_" gradientUnits="userSpaceOnUse" x1="9.1016" y1="2799.9688" x2="10.1016" y2="2799.9688" gradientTransform="matrix(-99.0501 257.9912 257.9912 99.0501 -723359.625 -271463.2813)">
			<stop offset="0" style="stop-color:#FEBBBA"></stop>
			<stop offset="1" style="stop-color:#FF928E"></stop>
		</linearGradient>
		<polygon clip-path="url(#SVGID_152_)" fill="url(#SVGID_153_)" points="856.419,1259.696 788.676,1436.144 653.591,1384.281     721.334,1207.833   "></polygon>
	</g>
	<g clip-path="url(#SVGID_59_)">
		<defs>
			<path id="SVGID_8_" d="M735.589,1171.764c-13.316,27.645,27.66,80.718,27.66,80.718h11.831l25.216-66.661     c2.102-5.56,2.331-11.653,0.647-17.353l-6.399-21.666c0,0-1.209-0.071-3.29-0.071     C780.547,1146.732,746.74,1148.616,735.589,1171.764"></path>
		</defs>
		<clipPath id="SVGID_154_">
			<use xlink:href="#SVGID_8_"></use>
		</clipPath>
		
			<linearGradient id="SVGID_155_" gradientUnits="userSpaceOnUse" x1="9.1016" y1="2800.0078" x2="10.1016" y2="2800.0078" gradientTransform="matrix(-99.0504 257.992 257.992 99.0504 -723406.8125 -271481.2813)">
			<stop offset="0" style="stop-color:#FEBBBA"></stop>
			<stop offset="1" style="stop-color:#FF928E"></stop>
		</linearGradient>
		<polygon clip-path="url(#SVGID_154_)" fill="url(#SVGID_155_)" points="838.012,1160.318 792.305,1279.37 686.889,1238.897     732.596,1119.846   "></polygon>
	</g>
	<g clip-path="url(#SVGID_59_)">
		<defs>
			<path id="SVGID_7_" d="M350.771,1433.786l-9.262,94.624c0,0,53.233,16.032,91.95-11.285l-27.218-85.999L350.771,1433.786z"></path>
		</defs>
		<clipPath id="SVGID_156_">
			<use xlink:href="#SVGID_7_"></use>
		</clipPath>
		
			<linearGradient id="SVGID_157_" gradientUnits="userSpaceOnUse" x1="9.1016" y1="2799.9941" x2="10.1016" y2="2799.9941" gradientTransform="matrix(-75.2278 325.0915 325.0915 75.2278 -909163.8125 -212188.2969)">
			<stop offset="0" style="stop-color:#FEBBBA"></stop>
			<stop offset="1" style="stop-color:#FF928E"></stop>
		</linearGradient>
		<polygon clip-path="url(#SVGID_156_)" fill="url(#SVGID_157_)" points="458.349,1436.886 428.786,1564.639 316.621,1538.683     346.183,1410.93   "></polygon>
	</g>
	<g clip-path="url(#SVGID_59_)">
		<defs>
			<path id="SVGID_6_" d="M342.146,1368.871l64.631,90.818l59.832-28.883c0,0-52.791-103.665-54.07-104.871     c-2.958-2.784-6.437-3.984-10.24-3.984C378.524,1321.953,342.146,1368.871,342.146,1368.871"></path>
		</defs>
		<clipPath id="SVGID_158_">
			<use xlink:href="#SVGID_6_"></use>
		</clipPath>
		
			<linearGradient id="SVGID_159_" gradientUnits="userSpaceOnUse" x1="9.1016" y1="2800.0068" x2="10.1016" y2="2800.0068" gradientTransform="matrix(37.0784 218.19 218.19 -37.0784 -610874.3125 103179.1953)">
			<stop offset="0" style="stop-color:#FEBBBA"></stop>
			<stop offset="1" style="stop-color:#FF928E"></stop>
		</linearGradient>
		<polygon clip-path="url(#SVGID_158_)" fill="url(#SVGID_159_)" points="463.116,1301.395 489.359,1455.823 345.64,1480.246     319.397,1325.818   "></polygon>
	</g>
	<g clip-path="url(#SVGID_59_)">
		<defs>
			<path id="SVGID_5_" d="M379.304,1283.451c-14.076,7.738-15.378,19.189-13.649,28.006c1.006,5.141-2.363,9.837-7.498,10.879     c-2.722,0.552-4.184,2.082-4.924,3.879c-1.663,4.037-6.064,6.311-10.398,5.782c-9.798-1.199-24.182,0.2-32.236,15.778     c-7.956,15.39,0.395,24.892,8.092,29.956c4.294,2.825,5.689,8.623,2.953,12.974c-11.005,17.506,1.025,27.845,7.919,31.998     c2.298,1.384,5.045,1.742,7.624,1c6.794-1.952,21.872-5.021,30.042,3.118c8.794,8.76,34.559,43.757,43.7,56.28     c2.078,2.848,5.534,4.318,9.024,3.838c21.248-2.934,45.192-11.811,57.307-16.72c4.591-1.857,7.028-6.928,5.528-11.647     c-5.982-18.837-15.505-38.701-20.423-48.445c-2.386-4.73-8.173-6.682-12.873-4.24c-8.053,4.186-15.566,14.332-23.575,25.491     c-9.395,13.093-21.549,3.478-25.102,0.17c-0.645-0.6-1.184-1.282-1.637-2.037l-29.841-49.743     c-1.522-2.539-1.785-5.622-0.717-8.382c2.943-7.609,10.254-22.164,23.592-23.855c18.157-2.303,47.02-16.1,41.27-35.623     c-4.51-15.313-19.394-32.844-38.061-32.843C390.289,1279.064,384.87,1280.39,379.304,1283.451"></path>
		</defs>
		<clipPath id="SVGID_160_">
			<use xlink:href="#SVGID_5_"></use>
		</clipPath>
		
			<linearGradient id="SVGID_161_" gradientUnits="userSpaceOnUse" x1="9.1016" y1="2800.1113" x2="10.1016" y2="2800.1113" gradientTransform="matrix(109.2691 -116.0765 -116.0765 -109.2691 324375.8125 308458.75)">
			<stop offset="0" style="stop-color:#09005D"></stop>
			<stop offset="1" style="stop-color:#1A0F91"></stop>
		</linearGradient>
		<polygon clip-path="url(#SVGID_160_)" fill="url(#SVGID_161_)" points="198.654,1389.53 387.983,1188.406 588.276,1376.953     398.947,1578.077   "></polygon>
	</g>
	<g clip-path="url(#SVGID_59_)">
		<defs>
			<path id="SVGID_4_" d="M352.264,1412.733c-14.695,1.232-26.259,15.87-8.05,32.327c22.652,20.47,34.222,0.028,34.222,0.028     s-11.07-32.386-25.381-32.389C352.792,1412.7,352.528,1412.711,352.264,1412.733"></path>
		</defs>
		<clipPath id="SVGID_162_">
			<use xlink:href="#SVGID_4_"></use>
		</clipPath>
		
			<linearGradient id="SVGID_163_" gradientUnits="userSpaceOnUse" x1="9.1016" y1="2800.0293" x2="10.1016" y2="2800.0293" gradientTransform="matrix(-6.5955 -153.222 -153.222 6.5955 429444.7188 -15489.1816)">
			<stop offset="0" style="stop-color:#FEBBBA"></stop>
			<stop offset="1" style="stop-color:#FF928E"></stop>
		</linearGradient>
		<polygon clip-path="url(#SVGID_162_)" fill="url(#SVGID_163_)" points="326.102,1467.783 323.735,1412.798 378.338,1410.447     380.706,1465.433   "></polygon>
	</g>
	<g clip-path="url(#SVGID_59_)">
		<defs>
			<rect id="SVGID_3_" x="9.102" width="2872.866" height="2800"></rect>
		</defs>
		<clipPath id="SVGID_164_">
			<use xlink:href="#SVGID_3_"></use>
		</clipPath>
		<path clip-path="url(#SVGID_164_)" fill="#17964A" d="M254.576,1714.126c-19.368-53.006-12.342-117.013-12.269-117.652l5.336,0.61    c-0.07,0.628-6.947,63.405,11.981,115.197L254.576,1714.126z"></path>
	</g>
	<g clip-path="url(#SVGID_59_)">
		<defs>
			<path id="SVGID_2_" d="M334.658,2064.743c-0.727,1.295-0.265,2.932,1.029,3.658c0.445,0.25,44.692,25.295,50.601,48.085     c0.313,1.211,1.404,2.013,2.598,2.013c0.222,0,0.452-0.028,0.677-0.087c1.434-0.371,2.298-1.838,1.926-3.274     c-6.48-25.002-51.271-50.356-53.174-51.423c-0.418-0.233-0.869-0.345-1.314-0.345     C336.061,2063.37,335.151,2063.865,334.658,2064.743"></path>
		</defs>
		<clipPath id="SVGID_165_">
			<use xlink:href="#SVGID_2_"></use>
		</clipPath>
		
			<linearGradient id="SVGID_166_" gradientUnits="userSpaceOnUse" x1="9.1016" y1="2799.999" x2="10.1016" y2="2799.999" gradientTransform="matrix(-52.8385 94.0347 94.0347 52.8385 -262410.9375 -146788)">
			<stop offset="0" style="stop-color:#09005D"></stop>
			<stop offset="1" style="stop-color:#1A0F91"></stop>
		</linearGradient>
		<polygon clip-path="url(#SVGID_165_)" fill="url(#SVGID_166_)" points="415.404,2076.6 377.959,2143.239 310.387,2105.27     347.832,2038.63   "></polygon>
	</g>
</g>
</svg>